# Blender v2.79 (sub 0) OBJ File: 'cylinder.blend'
# www.blender.org
o Cylinder
v 0.000000 -3.141590 -1.000000
v 0.000000 3.141590 -1.000000
v 0.195090 -3.141590 -0.980785
v 0.195090 3.141590 -0.980785
v 0.382683 -3.141590 -0.923880
v 0.382683 3.141590 -0.923880
v 0.555570 -3.141590 -0.831470
v 0.555570 3.141590 -0.831470
v 0.707107 -3.141590 -0.707107
v 0.707107 3.141590 -0.707107
v 0.831470 -3.141590 -0.555570
v 0.831470 3.141590 -0.555570
v 0.923880 -3.141590 -0.382683
v 0.923880 3.141590 -0.382683
v 0.980785 -3.141590 -0.195090
v 0.980785 3.141590 -0.195090
v 1.000000 -3.141590 -0.000000
v 1.000000 3.141590 -0.000000
v 0.980785 -3.141590 0.195090
v 0.980785 3.141590 0.195090
v 0.923880 -3.141590 0.382683
v 0.923880 3.141590 0.382683
v 0.831470 -3.141590 0.555570
v 0.831470 3.141590 0.555570
v 0.707107 -3.141590 0.707107
v 0.707107 3.141590 0.707107
v 0.555570 -3.141590 0.831470
v 0.555570 3.141590 0.831470
v 0.382683 -3.141590 0.923880
v 0.382683 3.141590 0.923880
v 0.195090 -3.141590 0.980785
v 0.195090 3.141590 0.980785
v -0.000000 -3.141590 1.000000
v -0.000000 3.141590 1.000000
v -0.195091 -3.141590 0.980785
v -0.195091 3.141590 0.980785
v -0.382684 -3.141590 0.923879
v -0.382684 3.141590 0.923879
v -0.555571 -3.141590 0.831469
v -0.555571 3.141590 0.831469
v -0.707107 -3.141590 0.707106
v -0.707107 3.141590 0.707106
v -0.831470 -3.141590 0.555570
v -0.831470 3.141590 0.555570
v -0.923880 -3.141590 0.382683
v -0.923880 3.141590 0.382683
v -0.980785 -3.141590 0.195089
v -0.980785 3.141590 0.195089
v -1.000000 -3.141590 -0.000001
v -1.000000 3.141590 -0.000001
v -0.980785 -3.141590 -0.195091
v -0.980785 3.141590 -0.195091
v -0.923879 -3.141590 -0.382684
v -0.923879 3.141590 -0.382684
v -0.831469 -3.141590 -0.555571
v -0.831469 3.141590 -0.555571
v -0.707106 -3.141590 -0.707108
v -0.707106 3.141590 -0.707108
v -0.555569 -3.141590 -0.831470
v -0.555569 3.141590 -0.831470
v -0.382682 -3.141590 -0.923880
v -0.382682 3.141590 -0.923880
v -0.195089 -3.141590 -0.980786
v -0.195089 3.141590 -0.980786
vt 0.280854 0.999897
vt 0.249651 0.000104
vt 0.280845 0.000103
vt 0.249661 0.999897
vt 0.218457 0.000104
vt 0.218467 0.999898
vt 0.187263 0.000104
vt 0.187274 0.999898
vt 0.156069 0.000105
vt 0.156080 0.999898
vt 0.124875 0.000105
vt 0.124887 0.999899
vt 0.093681 0.000105
vt 0.093693 0.999899
vt 0.062488 0.000106
vt 0.062500 0.999899
vt 0.031294 0.000106
vt 0.031306 0.999900
vt 0.000100 0.000106
vt 0.998304 0.999894
vt 0.967109 0.000100
vt 0.998303 0.000100
vt 0.967111 0.999894
vt 0.935916 0.000100
vt 0.935917 0.999894
vt 0.904722 0.000100
vt 0.904723 0.999894
vt 0.873528 0.000100
vt 0.873530 0.999894
vt 0.842334 0.000100
vt 0.842337 0.999894
vt 0.811140 0.000100
vt 0.811143 0.999894
vt 0.779946 0.000100
vt 0.779950 0.999894
vt 0.748752 0.000100
vt 0.748756 0.999894
vt 0.717559 0.000101
vt 0.717563 0.999894
vt 0.686365 0.000101
vt 0.686369 0.999895
vt 0.655171 0.000101
vt 0.655176 0.999895
vt 0.623977 0.000101
vt 0.623982 0.999895
vt 0.592783 0.000101
vt 0.592789 0.999895
vt 0.561589 0.000101
vt 0.561595 0.999895
vt 0.530395 0.000101
vt 0.530402 0.999895
vt 0.499201 0.000102
vt 0.499208 0.999896
vt 0.468008 0.000102
vt 0.468015 0.999896
vt 0.436814 0.000102
vt 0.436821 0.999896
vt 0.405620 0.000102
vt 0.405628 0.999896
vt 0.374426 0.000103
vt 0.374434 0.999896
vt 0.343232 0.000103
vt 0.019312 0.645817
vt 0.354184 0.019311
vt 0.980690 0.354187
vt 0.343241 0.999897
vt 0.312038 0.000103
vt 0.312047 0.999897
vt 0.999900 0.450762
vt 0.549237 0.999898
vt 0.000100 0.549233
vt 0.000113 0.999900
vt 0.645814 0.980686
vt 0.549235 0.999897
vt 0.450763 0.999896
vt 0.354185 0.980686
vt 0.263209 0.943002
vt 0.181333 0.888295
vt 0.111703 0.818665
vt 0.056995 0.736791
vt 0.000101 0.549238
vt 0.000100 0.450766
vt 0.019311 0.354186
vt 0.056994 0.263209
vt 0.111702 0.181332
vt 0.181332 0.111702
vt 0.263208 0.056994
vt 0.450764 0.000100
vt 0.549236 0.000100
vt 0.645816 0.019311
vt 0.736792 0.056995
vt 0.818669 0.111703
vt 0.888299 0.181334
vt 0.943007 0.263211
vt 0.999900 0.450766
vt 0.999900 0.549237
vt 0.980688 0.645816
vt 0.943004 0.736791
vt 0.888296 0.818667
vt 0.818666 0.888296
vt 0.736790 0.943003
vt 0.450765 0.000100
vt 0.549235 0.000100
vt 0.645815 0.019311
vt 0.736791 0.056994
vt 0.818667 0.111702
vt 0.888297 0.181332
vt 0.943005 0.263208
vt 0.980688 0.354183
vt 0.999900 0.549233
vt 0.980690 0.645812
vt 0.943007 0.736788
vt 0.888299 0.818664
vt 0.818669 0.888294
vt 0.736793 0.943003
vt 0.645817 0.980686
vt 0.450765 0.999898
vt 0.354185 0.980687
vt 0.263208 0.943003
vt 0.181332 0.888295
vt 0.111702 0.818665
vt 0.056994 0.736788
vt 0.019311 0.645812
vt 0.000100 0.450762
vt 0.111703 0.181331
vt 0.019311 0.354183
vt 0.056995 0.263207
vt 0.181333 0.111702
vt 0.263209 0.056994
vt 0.354185 0.019311
vn 0.0000 0.0000 -1.0000
vn 0.1951 0.0000 -0.9808
vn 0.3827 0.0000 -0.9239
vn 0.5556 0.0000 -0.8315
vn 0.7071 0.0000 -0.7071
vn 0.8315 0.0000 -0.5556
vn 0.9239 0.0000 -0.3827
vn 0.9808 0.0000 -0.1951
vn 1.0000 0.0000 -0.0000
vn 0.9808 0.0000 0.1951
vn 0.9239 0.0000 0.3827
vn 0.8315 0.0000 0.5556
vn 0.7071 0.0000 0.7071
vn 0.5556 0.0000 0.8315
vn 0.3827 0.0000 0.9239
vn 0.1951 0.0000 0.9808
vn -0.0000 0.0000 1.0000
vn -0.1951 0.0000 0.9808
vn -0.3827 0.0000 0.9239
vn -0.5556 0.0000 0.8315
vn -0.7071 0.0000 0.7071
vn -0.8315 0.0000 0.5556
vn -0.9239 0.0000 0.3827
vn -0.9808 0.0000 0.1951
vn -1.0000 0.0000 -0.0000
vn -0.9808 0.0000 -0.1951
vn -0.9239 0.0000 -0.3827
vn -0.8315 0.0000 -0.5556
vn -0.7071 0.0000 -0.7071
vn -0.5556 0.0000 -0.8315
vn -0.3827 0.0000 -0.9239
vn 0.0000 1.0000 -0.0000
vn -0.1951 0.0000 -0.9808
vn 0.0000 -1.0000 -0.0000
s 1
f 2/1/1 3/2/2 1/3/1
f 4/4/2 5/5/3 3/2/2
f 6/6/3 7/7/4 5/5/3
f 8/8/4 9/9/5 7/7/4
f 10/10/5 11/11/6 9/9/5
f 12/12/6 13/13/7 11/11/6
f 14/14/7 15/15/8 13/13/7
f 16/16/8 17/17/9 15/15/8
f 18/18/9 19/19/10 17/17/9
f 20/20/10 21/21/11 19/22/10
f 22/23/11 23/24/12 21/21/11
f 24/25/12 25/26/13 23/24/12
f 26/27/13 27/28/14 25/26/13
f 28/29/14 29/30/15 27/28/14
f 30/31/15 31/32/16 29/30/15
f 32/33/16 33/34/17 31/32/16
f 34/35/17 35/36/18 33/34/17
f 36/37/18 37/38/19 35/36/18
f 38/39/19 39/40/20 37/38/19
f 40/41/20 41/42/21 39/40/20
f 42/43/21 43/44/22 41/42/21
f 44/45/22 45/46/23 43/44/22
f 46/47/23 47/48/24 45/46/23
f 48/49/24 49/50/25 47/48/24
f 50/51/25 51/52/26 49/50/25
f 52/53/26 53/54/27 51/52/26
f 54/55/27 55/56/28 53/54/27
f 56/57/28 57/58/29 55/56/28
f 58/59/29 59/60/30 57/58/29
f 60/61/30 61/62/31 59/60/30
f 54/63/32 38/64/32 22/65/32
f 62/66/31 63/67/33 61/62/31
f 64/68/33 1/3/1 63/67/33
f 15/69/34 31/70/34 47/71/34
f 2/1/1 4/4/2 3/2/2
f 4/4/2 6/6/3 5/5/3
f 6/6/3 8/8/4 7/7/4
f 8/8/4 10/10/5 9/9/5
f 10/10/5 12/12/6 11/11/6
f 12/12/6 14/14/7 13/13/7
f 14/14/7 16/16/8 15/15/8
f 16/16/8 18/18/9 17/17/9
f 18/18/9 20/72/10 19/19/10
f 20/20/10 22/23/11 21/21/11
f 22/23/11 24/25/12 23/24/12
f 24/25/12 26/27/13 25/26/13
f 26/27/13 28/29/14 27/28/14
f 28/29/14 30/31/15 29/30/15
f 30/31/15 32/33/16 31/32/16
f 32/33/16 34/35/17 33/34/17
f 34/35/17 36/37/18 35/36/18
f 36/37/18 38/39/19 37/38/19
f 38/39/19 40/41/20 39/40/20
f 40/41/20 42/43/21 41/42/21
f 42/43/21 44/45/22 43/44/22
f 44/45/22 46/47/23 45/46/23
f 46/47/23 48/49/24 47/48/24
f 48/49/24 50/51/25 49/50/25
f 50/51/25 52/53/26 51/52/26
f 52/53/26 54/55/27 53/54/27
f 54/55/27 56/57/28 55/56/28
f 56/57/28 58/59/29 57/58/29
f 58/59/29 60/61/30 59/60/30
f 60/61/30 62/66/31 61/62/31
f 6/73/32 4/74/32 2/75/32
f 2/75/32 64/76/32 6/73/32
f 64/76/32 62/77/32 6/73/32
f 62/77/32 60/78/32 58/79/32
f 58/79/32 56/80/32 54/63/32
f 54/63/32 52/81/32 50/82/32
f 50/82/32 48/83/32 46/84/32
f 46/84/32 44/85/32 38/64/32
f 44/85/32 42/86/32 38/64/32
f 42/86/32 40/87/32 38/64/32
f 38/64/32 36/88/32 34/89/32
f 34/89/32 32/90/32 30/91/32
f 30/91/32 28/92/32 26/93/32
f 26/93/32 24/94/32 22/65/32
f 22/65/32 20/95/32 18/96/32
f 18/96/32 16/97/32 22/65/32
f 16/97/32 14/98/32 22/65/32
f 14/98/32 12/99/32 10/100/32
f 10/100/32 8/101/32 6/73/32
f 62/77/32 58/79/32 6/73/32
f 58/79/32 54/63/32 6/73/32
f 54/63/32 50/82/32 38/64/32
f 50/82/32 46/84/32 38/64/32
f 38/64/32 34/89/32 22/65/32
f 34/89/32 30/91/32 22/65/32
f 30/91/32 26/93/32 22/65/32
f 14/98/32 10/100/32 22/65/32
f 10/100/32 6/73/32 22/65/32
f 6/73/32 54/63/32 22/65/32
f 62/66/31 64/68/33 63/67/33
f 64/68/33 2/1/1 1/3/1
f 63/102/34 1/103/34 3/104/34
f 3/104/34 5/105/34 7/106/34
f 7/106/34 9/107/34 11/108/34
f 11/108/34 13/109/34 7/106/34
f 13/109/34 15/69/34 7/106/34
f 15/69/34 17/110/34 19/111/34
f 19/111/34 21/112/34 15/69/34
f 21/112/34 23/113/34 15/69/34
f 23/113/34 25/114/34 31/70/34
f 25/114/34 27/115/34 31/70/34
f 27/115/34 29/116/34 31/70/34
f 31/70/34 33/117/34 35/118/34
f 35/118/34 37/119/34 39/120/34
f 39/120/34 41/121/34 43/122/34
f 43/122/34 45/123/34 47/71/34
f 47/71/34 49/124/34 55/125/34
f 49/124/34 51/126/34 55/125/34
f 51/126/34 53/127/34 55/125/34
f 55/125/34 57/128/34 63/102/34
f 57/128/34 59/129/34 63/102/34
f 59/129/34 61/130/34 63/102/34
f 63/102/34 3/104/34 7/106/34
f 31/70/34 35/118/34 47/71/34
f 35/118/34 39/120/34 47/71/34
f 39/120/34 43/122/34 47/71/34
f 63/102/34 7/106/34 15/69/34
f 15/69/34 23/113/34 31/70/34
f 47/71/34 55/125/34 63/102/34
f 63/102/34 15/69/34 47/71/34
